<svg aria-hidden="true" style="position: absolute; width: 0; height: 0; overflow: hidden;" version="1.1" xmlns="http://www.w3.org/2000/svg" xmlns:xlink="http://www.w3.org/1999/xlink">
<defs>
<symbol id="icon-zoom" viewBox="0 0 70 16">
<path d="M14.583 15.565h-12.371c-0.818 0-1.594-0.429-1.971-1.163-0.43-0.838-0.273-1.843 0.388-2.503l8.607-8.599h-6.165c-1.698 0-3.072-1.372-3.072-3.069h11.396c0.818 0 1.594 0.429 1.971 1.163 0.43 0.838 0.273 1.843-0.388 2.503l-8.607 8.599h7.14c1.698 0 3.072 1.372 3.072 3.069zM63.543 0c-1.772 0-3.366 0.765-4.456 1.99-1.1-1.225-2.694-1.99-4.455-1.99-3.292 0-5.976 2.807-5.976 6.085v9.479c1.698 0 3.072-1.372 3.072-3.069v-6.442c0-1.582 1.227-2.922 2.799-2.985 1.657-0.063 3.030 1.267 3.030 2.912v6.515c0 1.697 1.373 3.069 3.072 3.069v-9.511c0-1.582 1.227-2.922 2.799-2.985 1.657-0.063 3.030 1.267 3.030 2.912v6.515c0 1.697 1.374 3.069 3.071 3.069v-9.479c-0.010-3.278-2.694-6.085-5.986-6.085zM30.078 7.897c0 4.357-3.544 7.898-7.905 7.898s-7.905-3.54-7.905-7.898c0-4.357 3.554-7.897 7.905-7.897s7.905 3.54 7.905 7.897zM27.007 7.897c0-2.66-2.17-4.829-4.833-4.829s-4.833 2.168-4.833 4.829c0 2.66 2.17 4.829 4.833 4.829s4.833-2.168 4.833-4.829zM47.115 7.897c0 4.357-3.543 7.898-7.905 7.898s-7.905-3.54-7.905-7.898c0-4.357 3.554-7.897 7.905-7.897s7.905 3.54 7.905 7.897zM44.043 7.897c0-2.66-2.17-4.829-4.833-4.829s-4.833 2.168-4.833 4.829c0 2.66 2.17 4.829 4.833 4.829s4.833-2.168 4.833-4.829z"></path>
</symbol>
<symbol id="icon-amazon" viewBox="0 0 42 16">
<path d="M25.55 12.602c-2.393 1.563-5.862 2.398-8.849 2.398-4.188 0-7.958-1.373-10.81-3.656-0.224-0.18-0.023-0.424 0.246-0.284 3.078 1.587 6.884 2.542 10.816 2.542 2.651 0 5.568-0.486 8.25-1.495 0.405-0.153 0.744 0.235 0.348 0.496z"></path>
<path d="M26.545 11.593c-0.305-0.346-2.022-0.164-2.793-0.083-0.235 0.025-0.271-0.156-0.059-0.286 1.368-0.853 3.612-0.607 3.874-0.321 0.262 0.288-0.068 2.282-1.354 3.233-0.197 0.146-0.385 0.068-0.298-0.126 0.289-0.639 0.936-2.070 0.629-2.418z"></path>
<path d="M23.806 5.201v-0.829c0-0.126 0.108-0.21 0.237-0.21h4.19c0.134 0 0.242 0.086 0.242 0.21v0.71c-0.002 0.119-0.115 0.275-0.316 0.521l-2.171 2.747c0.807-0.018 1.658 0.089 2.39 0.454 0.165 0.083 0.21 0.203 0.222 0.323v0.885c0 0.121-0.151 0.262-0.308 0.189-1.289-0.599-3.001-0.664-4.426 0.006-0.145 0.070-0.298-0.070-0.298-0.191v-0.841c0-0.135 0.002-0.365 0.154-0.57l2.515-3.197h-2.189c-0.134 0-0.242-0.084-0.242-0.208z"></path>
<path d="M8.523 10.376h-1.275c-0.122-0.008-0.219-0.089-0.228-0.192v-5.798c0-0.116 0.109-0.208 0.246-0.208h1.189c0.124 0.005 0.222 0.089 0.231 0.194v0.758h0.023c0.31-0.732 0.893-1.074 1.678-1.074 0.798 0 1.296 0.342 1.655 1.074 0.308-0.732 1.009-1.074 1.761-1.074 0.534 0 1.119 0.195 1.475 0.634 0.403 0.488 0.321 1.196 0.321 1.818l-0.002 3.659c0 0.116-0.109 0.21-0.246 0.21h-1.273c-0.127-0.008-0.229-0.099-0.229-0.21v-3.073c0-0.245 0.025-0.855-0.036-1.087-0.095-0.389-0.38-0.499-0.749-0.499-0.308 0-0.631 0.183-0.762 0.475s-0.118 0.782-0.118 1.111v3.073c0 0.116-0.109 0.21-0.246 0.21h-1.273c-0.129-0.008-0.229-0.099-0.229-0.21l-0.002-3.073c0-0.647 0.12-1.598-0.785-1.598-0.916 0-0.88 0.928-0.88 1.598v3.073c0 0.116-0.109 0.21-0.246 0.21z"></path>
<path d="M32.081 4.056c1.891 0 2.915 1.44 2.915 3.27 0 1.768-1.131 3.171-2.915 3.171-1.857 0-2.868-1.44-2.868-3.233 0-1.805 1.024-3.208 2.868-3.208zM32.092 5.239c-0.939 0-0.999 1.134-0.999 1.842 0 0.709-0.013 2.221 0.988 2.221 0.988 0 1.034-1.22 1.034-1.964 0-0.489-0.023-1.074-0.19-1.538-0.143-0.404-0.428-0.561-0.834-0.561z"></path>
<path d="M37.449 10.376h-1.269c-0.127-0.008-0.229-0.099-0.229-0.21l-0.002-5.8c0.011-0.106 0.117-0.189 0.246-0.189h1.181c0.111 0.005 0.203 0.072 0.228 0.162v0.887h0.023c0.357-0.793 0.857-1.171 1.737-1.171 0.572 0 1.129 0.183 1.488 0.683 0.333 0.464 0.333 1.244 0.333 1.805v3.65c-0.014 0.102-0.12 0.183-0.246 0.183h-1.278c-0.117-0.008-0.213-0.084-0.226-0.183v-3.149c0-0.634 0.082-1.562-0.798-1.562-0.31 0-0.595 0.184-0.737 0.464-0.179 0.354-0.202 0.707-0.202 1.098v3.122c-0.002 0.116-0.113 0.21-0.249 0.21z"></path>
<path d="M20.466 7.607v-0.245c-0.923 0-1.897 0.175-1.897 1.138 0 0.488 0.287 0.818 0.776 0.818 0.357 0 0.679-0.195 0.882-0.513 0.251-0.391 0.238-0.758 0.238-1.198zM21.752 10.36c-0.084 0.067-0.206 0.072-0.301 0.027-0.423-0.311-0.5-0.456-0.731-0.753-0.699 0.632-1.196 0.821-2.101 0.821-1.074 0-1.907-0.586-1.907-1.761 0-0.917 0.559-1.541 1.359-1.846 0.692-0.27 1.658-0.318 2.397-0.392v-0.146c0-0.269 0.023-0.586-0.156-0.818-0.154-0.208-0.452-0.294-0.715-0.294-0.486 0-0.918 0.221-1.024 0.678-0.021 0.102-0.106 0.202-0.222 0.207l-1.235-0.118c-0.104-0.021-0.221-0.095-0.19-0.237 0.283-1.328 1.639-1.729 2.85-1.729 0.62 0 1.431 0.146 1.92 0.562 0.62 0.513 0.561 1.198 0.561 1.943v1.761c0 0.529 0.247 0.761 0.48 1.047 0.081 0.102 0.099 0.224-0.005 0.3-0.26 0.192-0.723 0.55-0.977 0.75l-0.002-0.003z"></path>
<path d="M3.756 7.607v-0.245c-0.921 0-1.895 0.175-1.895 1.138 0 0.488 0.285 0.818 0.774 0.818 0.359 0 0.679-0.195 0.882-0.513 0.251-0.391 0.238-0.758 0.238-1.198zM5.041 10.36c-0.084 0.067-0.206 0.072-0.301 0.027-0.423-0.311-0.498-0.456-0.731-0.753-0.699 0.632-1.194 0.821-2.101 0.821-1.072 0-1.907-0.586-1.907-1.761 0-0.917 0.561-1.541 1.359-1.846 0.692-0.27 1.658-0.318 2.397-0.392v-0.146c0-0.269 0.023-0.586-0.154-0.818-0.156-0.208-0.454-0.294-0.715-0.294-0.486 0-0.92 0.221-1.025 0.678-0.022 0.102-0.106 0.202-0.221 0.207l-1.237-0.118c-0.104-0.021-0.219-0.095-0.19-0.237 0.285-1.328 1.639-1.729 2.85-1.729 0.62 0 1.431 0.146 1.92 0.562 0.62 0.513 0.561 1.198 0.561 1.943v1.761c0 0.529 0.247 0.761 0.48 1.047 0.082 0.102 0.1 0.224-0.004 0.3-0.26 0.192-0.722 0.55-0.977 0.75l-0.004-0.003z"></path>
</symbol>
<symbol id="icon-dribble" viewBox="0 0 42 16">
<path d="M41.863 10.188c-1.752 2.633-4.526 1.869-5.359 1.271-0.355 0.213-0.977 0.681-1.806 0.627-1.766-0.115-2.398-2.351-2.398-2.351 0.013 0.009-0.526 0.165-0.817 0.162-0.003 0.656-0.643 2.223-2.37 2.202-1.937-0.022-2.331-2.58-2.331-2.58s-0.193 0.237-0.926 0.473c0.037-0.504 0.010 2.030-2.312 2.067-1.836 0.030-2.331-2.58-2.331-2.58s-0.318 0.293-0.936 0.395c0.039-0.512-0.024 2.194-2.347 2.186-1.569-0.006-2.106-1.608-2.064-1.83 0.053-0.283-0.53 1.87-2.055 1.836-0.629-0.017-1.098-0.42-1.392-0.958-0.394 0.4-0.966 0.958-1.608 0.958-1.152 0-1.659-0.854-1.573-3.292 0.007-0.289-0.016-0.403-0.341-0.446-0.195-0.029-0.394-0.083-0.605-0.112-0.067 0.2-0.641 3.786-2.613 3.854-0.662 0.023-1.023-0.485-1.321-0.862-0.455 0.534-1.057 0.879-1.913 0.879-1.451 0-2.439-1.040-2.439-2.322s0.988-2.322 2.439-2.322c0.257 0 0.328 0.033 0.563 0.093-0.481-3.889 0.657-4.497 1.652-4.497 0.956 0 2.589 1.966 0.291 6.954 0.51 1.488 1.61 1.403 2.139-1.659 0.108-0.622-0.18-1.463 0.267-1.58 0.818-0.214 0.904 0.429 1.288 0.536 0.405 0.113 0.642 0.102 1.031 0.174 0.665 0.115 0.924 0.432 0.843 1.137-0.097 0.893-0.267 2.191 0.252 2.35 0.374 0.115 1.057-0.573 1.177-0.95s0.145-0.505 0.156-0.781c0.016-0.59 0.037-1.022 0.15-1.469 0.049-0.173 0.104-0.287 0.325-0.295 0.181-0.004 0.513-0.052 0.659 0.048 0.195 0.13 0.17 0.261 0.148 0.607-0.227 4.934 1.516 2.471 2.035 0.499-0.185-2.23-0.058-5.531 1.519-5.586 0.82-0.029 1.183 0.554 1.222 0.988 0.113 1.228-0.519 3.261-1.35 4.629-0.475 2.79 2.077 3.342 2.485 1.115-0.668-0.281-1.389-1.42-0.802-1.975 0.329-0.311 1.701 0.136 1.723 1.112 0.672-0.16 0.762-0.496 0.772-0.44-0.185-2.23-0.013-5.373 1.563-5.428 0.82-0.029 1.183 0.553 1.223 0.988 0.113 1.228-0.519 3.261-1.35 4.629-0.475 2.79 2.077 3.342 2.484 1.115-0.494-0.084-1.537-1.295-0.935-1.975 0.322-0.363 1.688 0.392 1.841 1.144 0.646-0.162 0.734-0.488 0.743-0.433-0.185-2.23-0.013-5.373 1.563-5.428 0.82-0.029 1.183 0.553 1.223 0.988 0.113 1.227-0.519 3.261-1.35 4.628-0.475 2.791 2.077 3.342 2.485 1.115-0.679-0.1-1.645-1.379-0.868-2.033 0.31-0.261 1.497 0.417 1.774 1.191 0.386-0.013 0.626-0.131 0.677-0.143-0.616-2.618-0.157-5.76 1.539-5.786 0.917-0.014 1.814 0.439 1.42 2.93-0.376 2.377-1.726 3.374-1.722 3.39 0.078 0.285 0.771 2.667 2.516 1.41-0.090-0.181-0.181-0.366-0.231-0.591-0.289-1.307 0.279-2.782 1.823-3.021 0.884-0.137 1.718 0.245 1.849 1.105 0.217 1.408-1.218 2.427-1.763 2.649-0.244-0.123 2.214 1.275 3.674-1.526 0.085-0.16 0.187-0.147 0.319-0.064 0.093 0.058 0.625 0.505 0.378 0.882zM3.501 9.417c-0.074-0.197-0.227-0.63-0.281-0.818-0.297-0.229-0.508-0.266-0.889-0.266-0.847 0-1.345 0.693-1.345 1.442s0.543 1.442 1.389 1.442c0.733 0 1.292-0.442 1.462-1.068-0.119-0.244-0.237-0.468-0.337-0.731zM4.639 4.067c-0.595 0-0.797 1.257-0.757 2.33 0.035 0.949 0.333 1.783 0.489 2.158 0.039 0.047 0.032 0.017 0.067 0.066 1.033-2.006 0.604-4.554 0.201-4.554zM17.025 4.107c-0.769-0.078-0.763 2.76-0.668 3.397 0.399-0.566 1.093-3.244 0.668-3.397zM22.638 4.107c-0.769-0.078-0.764 2.76-0.668 3.397 0.399-0.566 1.093-3.244 0.668-3.397zM28.207 4.146c-0.769-0.078-0.764 2.76-0.668 3.397 0.399-0.566 1.093-3.244 0.668-3.397zM33.687 3.94c-1.198 0.213-0.919 3.753-0.737 4.373 1.411-1.717 1.44-4.438 0.737-4.373zM38.176 8.364c-0.061-0.226-0.365-0.347-0.575-0.317-0.602 0.073-1.185 0.737-0.959 1.747 0.050 0.225 0.176 0.432 0.174 0.425 1.346-0.8 1.46-1.431 1.36-1.856zM12.815 6.674c-0.001 0-0.003 0-0.004 0-0.176 0-0.341-0.048-0.483-0.132l0.004 0.002c-0.139-0.081-0.249-0.199-0.318-0.341l-0.002-0.005c-0.042-0.086-0.066-0.188-0.066-0.295 0-0.053 0.006-0.105 0.017-0.155l-0.001 0.005c0.033-0.15 0.117-0.287 0.238-0.394 0.121-0.106 0.272-0.181 0.439-0.21l0.005-0.001c0.051-0.010 0.11-0.015 0.17-0.015 0.119 0 0.234 0.021 0.339 0.061l-0.007-0.002c0.159 0.058 0.294 0.157 0.39 0.284s0.147 0.275 0.147 0.428c0 0.101-0.023 0.201-0.067 0.295-0.047 0.098-0.11 0.181-0.187 0.249l-0.001 0.001c-0.080 0.070-0.173 0.127-0.276 0.165l-0.006 0.002c-0.099 0.037-0.213 0.059-0.332 0.059h-0z"></path>
</symbol>
<symbol id="icon-hubspot" viewBox="0 0 43 16">
<path d="M4.727 4.369v3.029h-3.138v-3.029h-1.491v7.231h1.49v-2.931h3.139v2.931h1.49v-7.231h-1.49zM10.987 9.262c0 0.29-0.13 0.568-0.361 0.773s-0.545 0.32-0.872 0.32c-0.327 0-0.641-0.115-0.872-0.32s-0.361-0.483-0.361-0.773v-3.097h-1.413v3.097c0 0.621 0.278 1.217 0.774 1.657s1.168 0.687 1.869 0.687c0.701 0 1.374-0.247 1.87-0.687s0.774-1.035 0.774-1.657v-3.097h-1.408v3.097zM21.46 6.484c0-0.635 0.474-0.836 0.993-0.836 0.418 0 0.971 0.282 1.332 0.624l0.926-0.967c-0.462-0.554-1.4-0.937-2.167-0.937-1.533 0-2.642 0.796-2.642 2.115 0 2.448 3.376 1.672 3.376 3.042 0 0.422-0.463 0.796-0.993 0.796-0.836 0-1.107-0.362-1.491-0.745l-1.027 0.947c0.657 0.715 1.468 1.078 2.439 1.078 1.457 0 2.628-0.806 2.628-2.065 0-2.718-3.376-1.873-3.376-3.052zM42.347 10.445c-0.835 0-1.073-0.32-1.073-0.811v-2.171h1.298v-1.1h-1.298v-1.452l-1.433 0.57v4.423c0 1.131 0.88 1.701 2.088 1.701 0.016 0 0.035 0 0.054 0 0.181 0 0.358-0.015 0.531-0.043l-0.019 0.003 0.35-1.141c-0.145 0.011-0.318 0.018-0.493 0.019l-0.004 0zM16.367 6.202c-0.7 0-1.189 0.18-1.661 0.591v-2.38h-1.416v4.411c0 1.652 1.347 2.783 2.861 2.783 1.679 0 3.157-1.151 3.157-2.702 0-1.531-1.36-2.702-2.941-2.702v-0.001zM16.359 10.344c-0.002 0-0.004 0-0.006 0-0.327 0-0.632-0.089-0.894-0.244l0.008 0.004c-0.264-0.157-0.47-0.379-0.592-0.639-0.077-0.159-0.122-0.347-0.122-0.544 0-0.099 0.011-0.195 0.032-0.287l-0.002 0.009c0.070-0.293 0.225-0.542 0.438-0.727l0.002-0.001c0.224-0.196 0.504-0.335 0.812-0.389l0.010-0.001c0.094-0.017 0.202-0.027 0.312-0.027 0.221 0 0.433 0.040 0.628 0.113l-0.012-0.004c0.293 0.108 0.545 0.29 0.721 0.524s0.271 0.509 0.271 0.791c0 0.378-0.169 0.74-0.47 1.007s-0.71 0.417-1.136 0.417zM31.74 8.838c0-1.553-1.474-2.702-3.156-2.702-1.513 0-2.861 1.131-2.861 2.783v4.414h1.416v-2.383c0.472 0.41 0.961 0.591 1.66 0.591 1.581 0 2.941-1.171 2.941-2.703h0.001zM30.4 8.823c0 0.281-0.095 0.557-0.271 0.791-0.183 0.237-0.428 0.418-0.71 0.521l-0.011 0.004c-0.293 0.108-0.617 0.136-0.928 0.081-0.319-0.055-0.598-0.194-0.825-0.392l0.002 0.002c-0.214-0.187-0.37-0.436-0.438-0.719l-0.002-0.009c-0.019-0.084-0.031-0.179-0.031-0.278 0-0.198 0.045-0.385 0.126-0.552l-0.003 0.008c0.122-0.26 0.327-0.482 0.592-0.639 0.254-0.151 0.56-0.24 0.886-0.24 0.002 0 0.004 0 0.006 0h-0c0.426 0 0.835 0.15 1.136 0.417s0.47 0.629 0.47 1.007z"></path>
<path d="M36.3 6.117v-1.248c0.185-0.076 0.339-0.197 0.452-0.35l0.002-0.003c0.111-0.153 0.17-0.331 0.171-0.513v-0.029c-0.001-0.254-0.115-0.498-0.318-0.678s-0.478-0.281-0.765-0.282h-0.033c-0.287 0.001-0.562 0.102-0.765 0.282s-0.317 0.423-0.318 0.678v0.029c0.001 0.182 0.060 0.36 0.171 0.513s0.268 0.276 0.454 0.353v1.248c-0.554 0.074-1.049 0.277-1.47 0.576l0.010-0.007-3.865-2.666c0.027-0.088 0.042-0.178 0.044-0.27 0-0.214-0.071-0.423-0.205-0.601-0.139-0.18-0.325-0.318-0.539-0.397l-0.008-0.003c-0.14-0.053-0.301-0.083-0.469-0.083-0.084 0-0.165 0.007-0.245 0.022l0.008-0.001c-0.242 0.042-0.455 0.147-0.628 0.297l0.002-0.001c-0.163 0.142-0.282 0.331-0.334 0.547l-0.001 0.007c-0.047 0.21-0.023 0.428 0.069 0.625 0.1 0.206 0.254 0.372 0.444 0.484l0.005 0.003c0.193 0.115 0.426 0.183 0.675 0.183 0.222 0 0.431-0.054 0.614-0.149l-0.007 0.003 3.8 2.622c-0.342 0.458-0.521 0.996-0.512 1.545s0.203 1.083 0.56 1.532l-1.157 1.025c-0.086-0.025-0.184-0.040-0.286-0.041h-0.001c-0.199 0-0.393 0.052-0.558 0.15s-0.294 0.237-0.37 0.399c-0.048 0.1-0.076 0.216-0.076 0.34 0 0.062 0.007 0.122 0.020 0.179l-0.001-0.005c0.039 0.173 0.134 0.331 0.275 0.456s0.319 0.209 0.514 0.243c0.195 0.035 0.397 0.017 0.58-0.050s0.336-0.18 0.449-0.325l0.002-0.002c0.11-0.147 0.169-0.319 0.169-0.495-0.002-0.092-0.018-0.179-0.048-0.26l0.002 0.005 1.144-1.014c0.361 0.245 0.788 0.423 1.248 0.505l0.020 0.003c0.461 0.082 0.937 0.069 1.391-0.037 0.471-0.11 0.884-0.31 1.239-0.581l-0.008 0.006c0.345-0.263 0.622-0.597 0.813-0.981l0.007-0.016c0.156-0.314 0.247-0.683 0.247-1.074 0-0.050-0.001-0.099-0.004-0.148l0 0.007c-0.028-0.443-0.168-0.849-0.39-1.196l0.006 0.010c-0.24-0.374-0.553-0.681-0.921-0.908l-0.012-0.007c-0.37-0.23-0.807-0.392-1.275-0.456l-0.017-0.002zM35.826 10.221c-0.002 0-0.004 0-0.006 0-0.322 0-0.623-0.088-0.882-0.241l0.008 0.004c-0.26-0.154-0.463-0.373-0.583-0.629-0.076-0.157-0.121-0.342-0.121-0.537 0-0.097 0.011-0.192 0.032-0.282l-0.002 0.008c0.069-0.288 0.222-0.534 0.432-0.717l0.002-0.001c0.221-0.193 0.497-0.33 0.801-0.383l0.010-0.001c0.093-0.017 0.199-0.027 0.308-0.027 0.218 0 0.426 0.039 0.618 0.111l-0.012-0.004c0.289 0.106 0.537 0.286 0.711 0.517s0.267 0.502 0.267 0.779c0 0.372-0.167 0.729-0.464 0.992s-0.699 0.411-1.119 0.411z"></path>
</symbol>
<symbol id="icon-netflix" viewBox="0 0 42 16">
<path d="M5.834 12.689c-0.628 0.098-1.267 0.127-1.928 0.205l-2.017-5.234v5.459c-0.628 0.058-1.201 0.137-1.796 0.215v-10h1.675l2.292 5.674v-5.674h1.774v9.355zM9.305 6.995c0.683 0 1.73-0.029 2.358-0.029v1.563c-0.782 0-1.697 0-2.358 0.029v2.324c1.036-0.059 2.071-0.137 3.118-0.166v1.504l-4.881 0.342v-9.228h4.881v1.563h-3.118v2.099zM18.979 4.896h-1.829v7.187c-0.595 0-1.19 0-1.763 0.020v-7.207h-1.829v-1.563h5.421v1.563zM21.844 6.888h2.413v1.563h-2.413v3.545h-1.73v-8.662h4.925v1.563h-3.195v1.992zM27.904 10.628c1.003 0.020 2.017 0.088 2.997 0.137v1.543c-1.576-0.088-3.151-0.176-4.76-0.205v-8.77h1.763v7.295zM32.388 12.415c0.562 0.029 1.157 0.059 1.73 0.117v-9.199h-1.73v9.082zM41.842 3.333l-2.237 4.756 2.237 5.244c-0.661-0.078-1.322-0.186-1.983-0.283l-1.267-2.89-1.289 2.656c-0.639-0.098-1.256-0.127-1.895-0.205l2.27-4.58-2.049-4.697h1.895l1.157 2.627 1.234-2.627h1.928z"></path>
</symbol>
<symbol id="icon-notion" viewBox="0 0 49 16">
<path d="M17.175 11.592v-4.852h0.098l3.985 4.852h1.254v-7.125h-1.393v4.839h-0.097l-3.985-4.839h-1.254v7.125h1.393zM26.454 11.702c1.839 0 2.968-1.051 2.968-2.811 0-1.748-1.129-2.811-2.968-2.811-1.825 0-2.968 1.063-2.968 2.811 0.014 1.76 1.129 2.811 2.968 2.811zM26.454 10.675c-0.975 0-1.533-0.648-1.533-1.784 0-1.124 0.557-1.784 1.533-1.784s1.533 0.66 1.533 1.784c0 1.137-0.557 1.784-1.533 1.784zM30.689 4.87v1.356h-0.975v0.978h0.975v2.945c0 1.051 0.557 1.467 1.978 1.467 0.265 0 0.53-0.025 0.739-0.061v-0.953c-0.167 0.012-0.279 0.025-0.474 0.025-0.585 0-0.85-0.232-0.85-0.77v-2.652h1.324v-0.978h-1.324v-1.357h-1.393zM34.242 11.592h1.393v-5.402h-1.393v5.402zM34.939 5.298c0.46 0 0.836-0.33 0.836-0.733 0-0.416-0.376-0.746-0.836-0.746s-0.836 0.33-0.836 0.746c0 0.403 0.376 0.733 0.836 0.733zM39.453 11.701c1.839 0 2.968-1.051 2.968-2.81 0-1.748-1.128-2.811-2.968-2.811-1.825 0-2.967 1.063-2.967 2.811 0 1.76 1.114 2.811 2.967 2.811zM39.453 10.675c-0.975 0-1.532-0.648-1.532-1.784 0-1.124 0.557-1.784 1.532-1.784 0.961 0 1.533 0.66 1.533 1.784-0.014 1.137-0.571 1.784-1.533 1.784zM43.242 11.592h1.393v-3.141c0-0.794 0.529-1.296 1.351-1.296 0.85 0 1.24 0.416 1.24 1.234v3.202h1.393v-3.495c0-1.295-0.752-2.016-2.118-2.016-0.92 0-1.533 0.367-1.825 0.978h-0.097v-0.868h-1.352c0.014 0 0.014 5.402 0.014 5.402z"></path>
<path d="M2.423 4.011c0.405 0.29 0.552 0.267 1.311 0.221l7.152-0.381c0.155 0 0.026-0.137-0.026-0.153l-1.191-0.755c-0.224-0.153-0.535-0.336-1.113-0.29l-6.919 0.45c-0.25 0.023-0.302 0.138-0.199 0.222l0.984 0.687zM2.854 5.483v6.653c0 0.359 0.199 0.488 0.656 0.465l7.86-0.404c0.457-0.023 0.509-0.267 0.509-0.557v-6.607c0-0.29-0.129-0.45-0.406-0.427l-8.213 0.427c-0.302 0.023-0.406 0.16-0.406 0.45zM10.611 5.842c0.052 0.198 0 0.404-0.225 0.427l-0.38 0.069v4.913c-0.328 0.153-0.63 0.244-0.889 0.244-0.405 0-0.509-0.114-0.811-0.45l-2.476-3.441v3.327l0.785 0.152s0 0.404-0.63 0.404l-1.742 0.092c-0.052-0.092 0-0.313 0.172-0.359l0.457-0.114v-4.395l-0.63-0.046c-0.052-0.198 0.078-0.488 0.432-0.511l1.872-0.114 2.58 3.479v-3.075l-0.656-0.069c-0.052-0.244 0.155-0.427 0.406-0.45l1.734-0.084zM1.060 2.493l7.204-0.466c0.88-0.069 1.113-0.023 1.665 0.336l2.295 1.427c0.38 0.244 0.509 0.313 0.509 0.58v7.836c0 0.488-0.199 0.778-0.906 0.824l-8.361 0.45c-0.535 0.023-0.785-0.046-1.061-0.358l-1.7-1.946c-0.302-0.359-0.431-0.626-0.431-0.939v-6.966c0-0.404 0.207-0.732 0.785-0.778z"></path>
</symbol>
</defs>
</svg>
